<mxfile host="app.diagrams.net" modified="2023-01-29T06:13:15.063Z" agent="5.0 (Windows NT 10.0; Win64; x64) AppleWebKit/537.36 (KHTML, like Gecko) Chrome/108.0.0.0 Safari/537.36 Edg/108.0.1462.76" version="20.8.1" etag="cIyLlHZOjErNfClg0MHL" type="github">
  <diagram id="6zN18QuKZ5fs3XN26g8G" name="第 1 页">
    <mxGraphModel dx="2027" dy="1124" grid="1" gridSize="10" guides="1" tooltips="1" connect="1" arrows="1" fold="1" page="1" pageScale="1" pageWidth="827" pageHeight="1169" math="0" shadow="0">
      <root>
        <mxCell id="0" />
        <mxCell id="1" parent="0" />
        <mxCell id="_BncQp4rTHP6wQTxTalf-2" value="" style="whiteSpace=wrap;html=1;aspect=fixed;" vertex="1" parent="1">
          <mxGeometry x="150" y="260" width="80" height="80" as="geometry" />
        </mxCell>
        <mxCell id="_BncQp4rTHP6wQTxTalf-3" value="" style="ellipse;whiteSpace=wrap;html=1;aspect=fixed;" vertex="1" parent="1">
          <mxGeometry x="280" y="260" width="80" height="80" as="geometry" />
        </mxCell>
      </root>
    </mxGraphModel>
  </diagram>
</mxfile>
